D:\school\WTK\thesis\model\3dpredictsim\Results\batch_windlass\Pog_s1_tmt_aCst_d00_k500_WL20_ig24_pas_GRF.mot
nRows=17
nColumns=19

name D:\school\WTK\thesis\model\3dpredictsim\Results\batch_windlass\Pog_s1_tmt_aCst_d00_k500_WL20_ig24_pas_GRF.mot
datacolumns 19
datarows 17
range 0.0000000000 0.1738320942
endheader
time 	ground_force_vx	ground_force_vy	ground_force_vz	ground_force_px	ground_force_py	ground_force_pz	1_ground_force_vx	1_ground_force_vy	1_ground_force_vz	1_ground_force_px	1_ground_force_py	1_ground_force_pz	ground_torque_x	ground_torque_y	ground_torque_z	1_ground_torque_x	1_ground_torque_y	1_ground_torque_z
        0.0000000000	      -90.4580019131	       75.5995193950	       32.4152883990	        0.1406331168	        0.0000000000	        0.0415346573	       84.2330822930	      424.7623698205	       -4.2278107186	       -0.3306820301	        0.0000000000	       -0.0319755313	        0.0000000000	        0.0000000000	        0.0000000000	        0.0000000000	        0.0000000000	        0.0000000000	
        0.0108645059	     -133.6016871808	      155.0012370671	       76.8877849056	        0.1496204101	        0.0000000000	        0.0400790478	       55.8024570083	      325.2943065920	      -13.6120475394	       -0.3240962631	        0.0000000000	       -0.0293429921	        0.0000000000	        0.0000000000	        0.0000000000	        0.0000000000	        0.0000000000	        0.0000000000	
        0.0217290118	      -62.3164769851	      338.0878112296	       32.1616517282	        0.1611394804	        0.0000000000	        0.0398574696	       25.6577626082	      219.9081482786	      -14.0379189572	       -0.3125780345	        0.0000000000	       -0.0236695688	        0.0000000000	        0.0000000000	        0.0000000000	        0.0000000000	        0.0000000000	        0.0000000000	
        0.0325935177	      -57.5716171468	      571.5525009346	       -3.5835092282	        0.1702601993	        0.0000000000	        0.0416820577	        6.5056318844	      156.5041448570	      -13.4927238057	       -0.3015913220	        0.0000000000	       -0.0173070986	        0.0000000000	        0.0000000000	        0.0000000000	        0.0000000000	        0.0000000000	        0.0000000000	
        0.0434580235	      -81.7190666971	      750.9027111838	      -13.0288274317	        0.1767327233	        0.0000000000	        0.0430244316	       -1.2636318348	      123.6807055548	      -11.5657629224	       -0.3018291560	        0.0000000000	       -0.0173889155	        0.0000000000	        0.0000000000	        0.0000000000	        0.0000000000	        0.0000000000	        0.0000000000	
        0.0543225294	     -111.7774565735	      862.9473598398	      -16.8715516311	        0.1833808392	        0.0000000000	        0.0435453969	       -6.1847470725	       82.5087278608	       -9.0444416838	       -0.3015783691	        0.0000000000	       -0.0172995897	        0.0000000000	        0.0000000000	        0.0000000000	        0.0000000000	        0.0000000000	        0.0000000000	
        0.0651870353	     -121.7372180163	      922.1730117378	      -16.2193156537	        0.1897139789	        0.0000000000	        0.0433292636	      -13.5751180495	       35.5654799095	       -4.9732110353	       -0.3025657522	        0.0000000000	       -0.0172027390	        0.0000000000	        0.0000000000	        0.0000000000	        0.0000000000	        0.0000000000	        0.0000000000	
        0.0760515412	     -120.2343917728	      922.8284408717	      -16.3711982263	        0.1966193635	        0.0000000000	        0.0428408570	        0.1213340438	       -0.1175864281	       -0.0024691725	        0.0000000000	        0.0000000000	        0.0000000000	        0.0000000000	        0.0000000000	        0.0000000000	        0.0000000000	        0.0000000000	        0.0000000000	
        0.0869160471	     -103.5928878570	      875.2216307300	      -15.8282209040	        0.2006095907	        0.0000000000	        0.0423862206	        0.0002619560	       -0.0002088497	       -0.0000180566	        0.0000000000	        0.0000000000	        0.0000000000	        0.0000000000	        0.0000000000	        0.0000000000	        0.0000000000	        0.0000000000	        0.0000000000	
        0.0977805530	      -86.8409366189	      811.5599760854	      -15.7661120080	        0.2041106537	        0.0000000000	        0.0420957518	        0.0001189969	       -0.0000833251	       -0.0000091907	        0.0000000000	        0.0000000000	        0.0000000000	        0.0000000000	        0.0000000000	        0.0000000000	        0.0000000000	        0.0000000000	        0.0000000000	
        0.1086450589	      -73.0957397890	      753.7838164320	      -15.8849863235	        0.2074594162	        0.0000000000	        0.0419197120	        0.0009852636	       -0.0006274870	       -0.0000790246	        0.0000000000	        0.0000000000	        0.0000000000	        0.0000000000	        0.0000000000	        0.0000000000	        0.0000000000	        0.0000000000	        0.0000000000	
        0.1195095647	      -61.4980363104	      707.6372838658	      -16.5287488233	        0.2108862347	        0.0000000000	        0.0418234605	        0.0131556323	       -0.0077716370	       -0.0010829020	        0.0000000000	        0.0000000000	        0.0000000000	        0.0000000000	        0.0000000000	        0.0000000000	        0.0000000000	        0.0000000000	        0.0000000000	
        0.1303740706	      -51.5804261646	      671.4606301571	      -17.1723195994	        0.2144483642	        0.0000000000	        0.0417877646	       -0.0562501643	        0.0311938758	        0.0047682200	        0.0000000000	        0.0000000000	        0.0000000000	        0.0000000000	        0.0000000000	        0.0000000000	        0.0000000000	        0.0000000000	        0.0000000000	
        0.1412385765	      -42.3492642506	      643.2222653415	      -18.3209115388	        0.2186520286	        0.0000000000	        0.0417752164	       -0.0404568114	        0.0212188771	        0.0035476412	        0.0000000000	        0.0000000000	        0.0000000000	        0.0000000000	        0.0000000000	        0.0000000000	        0.0000000000	        0.0000000000	        0.0000000000	
        0.1521030824	      -35.5857138026	      621.8373650225	      -19.4909012605	        0.2236135498	        0.0000000000	        0.0417419038	       -0.0256008847	        0.0127697127	        0.0023369885	        0.0000000000	        0.0000000000	        0.0000000000	        0.0000000000	        0.0000000000	        0.0000000000	        0.0000000000	        0.0000000000	        0.0000000000	
        0.1629675883	      -30.8334302950	      606.4260225226	      -20.1396560941	        0.2289017585	        0.0000000000	        0.0416766082	       -0.0193715777	        0.0092381393	        0.0018393102	        0.0000000000	        0.0000000000	        0.0000000000	        0.0000000000	        0.0000000000	        0.0000000000	        0.0000000000	        0.0000000000	        0.0000000000	
        0.1738320942	      -26.7521857951	      595.7731490991	      -20.5540893005	        0.2345175411	        0.0000000000	        0.0415723976	       -0.0187239224	        0.0085821256	        0.0018334392	        0.0000000000	        0.0000000000	        0.0000000000	        0.0000000000	        0.0000000000	        0.0000000000	        0.0000000000	        0.0000000000	        0.0000000000	
